<?xml version="1.0" encoding="UTF-8"?>
<svg id="Layer_1" xmlns="http://www.w3.org/2000/svg" version="1.1" viewBox="0 0 1920 1080">
  <!-- Generator: Adobe Illustrator 30.1.0, SVG Export Plug-In . SVG Version: 2.1.1 Build 136)  -->
  <defs>
    <style>
      .st0 {
        fill: #25d366;
      }
    </style>
  </defs>
  <path class="st0" d="M1112.68,329.85l-16.41-16.41-136.24,136.24-34.66-34.66-16.41,16.41,34.66,34.66-34.66,34.66,16.41,16.41,34.66-34.66,77.06,77.07,16.41-16.41-77.06-77.06,136.24-136.24ZM960.03,474.73c-4.77,0-8.64-3.87-8.64-8.64s3.87-8.64,8.64-8.64,8.64,3.87,8.64,8.64-3.87,8.64-8.64,8.64Z"/>
  <path class="st0" d="M1181.68,107.51h-443.29c-198.04,0-358.58,160.54-358.58,358.58h0c0,198.04,160.54,358.58,358.58,358.58h9.9v147.92l221.88-147.92h211.52c198.04,0,358.58-160.54,358.58-358.58h0c0-198.04-160.54-358.58-358.58-358.58ZM1181.68,662.2h-443.29c-108.14,0-196.12-87.98-196.12-196.12s87.98-196.12,196.12-196.12h443.29c108.14,0,196.12,87.98,196.12,196.12s-87.98,196.12-196.12,196.12Z"/>
</svg>