<?xml version="1.0" encoding="UTF-8"?>
<svg id="Layer_1" xmlns="http://www.w3.org/2000/svg" version="1.1" viewBox="0 0 1920 1080">
  <!-- Generator: Adobe Illustrator 30.1.0, SVG Export Plug-In . SVG Version: 2.1.1 Build 136)  -->
  <defs>
    <style>
      .st0 {
        fill: #25d366;
      }
    </style>
  </defs>
  <g>
    <path class="st0" d="M975.92,453.94l-6.72-6.72-55.78,55.78-14.19-14.19-6.72,6.72,14.19,14.19-14.19,14.19,6.72,6.72,14.19-14.19,31.55,31.55,6.72-6.72-31.55-31.55,55.78-55.78ZM913.42,513.26c-1.95,0-3.54-1.58-3.54-3.54s1.58-3.54,3.54-3.54,3.54,1.58,3.54,3.54-1.58,3.54-3.54,3.54Z"/>
    <path class="st0" d="M1004.16,362.9h-181.5c-81.08,0-146.81,65.73-146.81,146.81h0c0,81.08,65.73,146.81,146.81,146.81h4.05v60.56l90.84-60.56h86.6c81.08,0,146.81-65.73,146.81-146.81h0c0-81.08-65.73-146.81-146.81-146.81ZM1004.16,590.01h-181.5c-44.28,0-80.3-36.02-80.3-80.3s36.02-80.3,80.3-80.3h181.5c44.28,0,80.3,36.02,80.3,80.3s-36.02,80.3-80.3,80.3Z"/>
  </g>
  <path d="M159.21,509.72c0-81.31,55.9-146.81,144.55-146.81,71.71,0,129.87,42.91,136.09,108.42h-68.89c-5.08-28.23-32.75-48.56-65.5-48.56-48,0-73.97,37.27-73.97,86.96s26.54,86.96,75.1,86.96c32.75,0,58.16-18.63,64.94-46.87h70.02c-9.03,62.11-64.37,106.72-137.78,106.72-88.65,0-144.55-65.5-144.55-146.82Z"/>
  <path d="M617.14,425.58c-44.04,0-61.55,37.83-61.55,92.04v134.39h-69.45v-284.59h69.45v50.26c14.12-36.14,36.14-50.26,72.84-50.26h33.32v58.16h-44.61Z"/>
  <path d="M1197.83,367.42h69.45v44.04c15.81-31.06,48-48.56,88.65-48.56,64.37,0,106.16,46.3,106.16,112.93v176.18h-69.45v-161.49c0-38.96-23.72-66.07-59.29-66.07-38.96,0-66.07,30.49-66.07,72.28v155.28h-69.45v-284.59Z"/>
  <path d="M1760.79,469.06v182.95h-68.32v-42.35c-11.86,28.23-44.61,46.87-85.27,46.87-56.47,0-94.86-36.14-94.86-85.27,0-55.33,42.91-89.78,106.72-89.78h52.52c14.12,0,20.89-7.91,20.89-19.2,0-27.67-21.46-47.43-58.16-47.43s-58.73,23.15-59.86,48.56h-62.11c3.39-56.47,51.38-100.51,125.35-100.51s123.1,41.78,123.1,106.16ZM1692.47,531.74v-4.51h-63.81c-29.36,0-49.12,16.37-49.12,41.22,0,22.02,18.07,36.7,44.04,36.7,43.48,0,68.89-30.49,68.89-73.41Z"/>
</svg>