<?xml version="1.0" encoding="UTF-8"?>
<svg id="Layer_1" xmlns="http://www.w3.org/2000/svg" version="1.1" viewBox="0 0 1920 1080">
  <!-- Generator: Adobe Illustrator 30.1.0, SVG Export Plug-In . SVG Version: 2.1.1 Build 136)  -->
  <defs>
    <style>
      .st0 {
        fill: #fff;
      }

      .st1 {
        fill: #25d366;
      }
    </style>
  </defs>
  <g>
    <path class="st1" d="M978,442.68l-7.6-7.6-63.08,63.08-16.05-16.05-7.6,7.6,16.05,16.05-16.05,16.05,7.6,7.6,16.05-16.05,35.68,35.68,7.6-7.6-35.68-35.68,63.08-63.08ZM907.32,509.76c-2.21,0-4-1.79-4-4s1.79-4,4-4,4,1.79,4,4-1.79,4-4,4Z"/>
    <path class="st1" d="M1009.94,339.74h-205.24c-91.69,0-166.02,74.33-166.02,166.02h0c0,91.69,74.33,166.02,166.02,166.02h4.58v68.49l102.73-68.49h97.93c91.69,0,166.02-74.33,166.02-166.02h0c0-91.69-74.33-166.02-166.02-166.02ZM1009.94,596.56h-205.24c-50.07,0-90.8-40.73-90.8-90.8s40.73-90.8,90.8-90.8h205.24c50.07,0,90.8,40.73,90.8,90.8s-40.73,90.8-90.8,90.8Z"/>
  </g>
  <path class="st0" d="M54.44,505.76c0-91.95,63.22-166.02,163.47-166.02,81.1,0,146.86,48.53,153.89,122.6h-77.9c-5.75-31.93-37.04-54.92-74.07-54.92-54.27,0-83.65,42.14-83.65,98.34s30.01,98.34,84.93,98.34c37.04,0,65.77-21.07,73.43-53h79.18c-10.22,70.24-72.79,120.69-155.8,120.69-100.25,0-163.47-74.07-163.47-166.02Z"/>
  <path class="st0" d="M572.28,410.62c-49.8,0-69.6,42.78-69.6,104.08v151.97h-78.54v-321.82h78.54v56.83c15.97-40.87,40.87-56.83,82.37-56.83h37.67v65.77h-50.45Z"/>
  <path class="st0" d="M1228.95,344.85h78.54v49.81c17.88-35.12,54.28-54.92,100.25-54.92,72.79,0,120.05,52.36,120.05,127.71v199.22h-78.54v-182.62c0-44.06-26.82-74.71-67.05-74.71-44.06,0-74.71,34.48-74.71,81.73v175.6h-78.54v-321.82Z"/>
  <path class="st0" d="M1865.56,459.78v206.88h-77.26v-47.89c-13.41,31.93-50.45,53-96.42,53-63.85,0-107.27-40.87-107.27-96.42,0-62.57,48.53-101.53,120.68-101.53h59.39c15.96,0,23.63-8.94,23.63-21.71,0-31.29-24.26-53.63-65.77-53.63s-66.41,26.18-67.69,54.91h-70.24c3.83-63.85,58.1-113.66,141.75-113.66s139.2,47.25,139.2,120.05ZM1788.29,530.66v-5.11h-72.16c-33.2,0-55.55,18.52-55.55,46.61,0,24.9,20.43,41.51,49.81,41.51,49.17,0,77.9-34.48,77.9-83.01Z"/>
</svg>